<?xml version="1.0" standalone="no"?>
<!DOCTYPE svg PUBLIC "-//W3C//DTD SVG 1.1//EN" "http://www.w3.org/Graphics/SVG/1.1/DTD/svg11.dtd">
<svg t="1695884771434" class="icon" viewBox="0 0 1024 1024" version="1.1" xmlns="http://www.w3.org/2000/svg" p-id="5753" xmlns:xlink="http://www.w3.org/1999/xlink" width="64" height="64">
	<path d="M251.403217 438.707225h-73.499093c-9.899878 0-17.899779 7.999901-17.899779 17.899779v73.499093c0 9.899878 7.999901 17.899779 17.899779 17.899779h73.499093c9.799879 0 17.79978-8.0999 17.899779-17.899779v-73.499093c0-9.899878-7.999901-17.899779-17.899779-17.899779zM251.403217 612.405081h-73.499093c-9.899878 0-17.899779 7.999901-17.899779 17.899779v73.499092c0 9.899878 7.999901 17.899779 17.899779 17.899779h73.499093c9.799879 0 17.79978-7.999901 17.899779-17.899779v-73.499092c0-9.899878-7.999901-17.899779-17.899779-17.899779zM251.403217 786.102937h-73.499093c-9.899878 0-17.899779 7.999901-17.899779 17.899779v73.499092c0 9.899878 7.999901 17.899779 17.899779 17.899779h73.499093c9.799879 0 17.79978-7.999901 17.899779-17.899779V804.002716c0-9.899878-7.999901-17.899779-17.899779-17.899779zM449.60077 438.707225h-73.499093c-9.899878 0-17.899779 7.999901-17.899779 17.899779v73.499093c0 9.899878 7.999901 17.899779 17.899779 17.899779h73.499093c9.899878 0 17.899779-8.0999 17.899779-17.899779v-73.499093c0-9.899878-7.999901-17.899779-17.899779-17.899779zM449.60077 612.405081h-73.499093c-9.899878 0-17.899779 7.999901-17.899779 17.899779v73.499092c0 9.899878 7.999901 17.899779 17.899779 17.899779h73.499093c9.899878 0 17.899779-7.999901 17.899779-17.899779v-73.499092c0-9.899878-7.999901-17.899779-17.899779-17.899779zM449.60077 786.102937h-73.499093c-9.899878 0-17.899779 7.999901-17.899779 17.899779v73.499092c0 9.899878 7.999901 17.899779 17.899779 17.899779h73.499093c9.899878 0 17.899779-7.999901 17.899779-17.899779V804.002716c0-9.899878-7.999901-17.899779-17.899779-17.899779zM647.898323 438.707225h-73.499093c-9.899878 0-17.899779 7.999901-17.899779 17.899779v73.499093c0 9.899878 7.999901 17.899779 17.899779 17.899779h73.499093c9.899878 0 17.899779-8.0999 17.899779-17.899779v-73.499093c0-9.899878-7.999901-17.899779-17.899779-17.899779zM647.898323 612.405081h-73.499093c-9.899878 0-17.899779 7.999901-17.899779 17.899779v73.499092c0 9.899878 7.999901 17.899779 17.899779 17.899779h73.499093c9.899878 0 17.899779-7.999901 17.899779-17.899779v-73.499092c0-9.899878-7.999901-17.899779-17.899779-17.899779zM647.898323 786.102937h-73.499093c-9.899878 0-17.899779 7.999901-17.899779 17.899779v73.499092c0 9.899878 7.999901 17.899779 17.899779 17.899779h73.499093c9.899878 0 17.899779-7.999901 17.899779-17.899779V804.002716c0-9.899878-7.999901-17.899779-17.899779-17.899779zM846.095876 438.707225h-73.499093c-9.899878 0-17.899779 7.999901-17.899779 17.899779v73.499093c0 9.899878 7.999901 17.899779 17.899779 17.899779h73.499093c9.899878 0 17.899779-8.0999 17.899779-17.899779v-73.499093c0-9.899878-7.999901-17.899779-17.899779-17.899779zM846.095876 612.405081h-73.499093c-9.899878 0-17.899779 7.999901-17.899779 17.899779v73.499092c0 9.899878 7.999901 17.899779 17.899779 17.899779h73.499093c9.899878 0 17.899779-7.999901 17.899779-17.899779v-73.499092c0-9.899878-7.999901-17.899779-17.899779-17.899779zM846.095876 786.102937h-73.499093c-9.899878 0-17.899779 7.999901-17.899779 17.899779v73.499092c0 9.899878 7.999901 17.899779 17.899779 17.899779h73.499093c9.899878 0 17.899779-7.999901 17.899779-17.899779V804.002716c0-9.899878-7.999901-17.899779-17.899779-17.899779z" p-id="5754" fill="#8a8a8a"></path>
	<path d="M869.895582 93.511486h-99.298774c-9.199886 0-16.799793-7.499907-16.799793-16.799793V32.512239c0-17.299786-13.599832-32.099604-30.999617-32.499599-18.099777-0.499994-32.699596 13.899828-32.699596 31.899606v44.899446c0 9.199886-7.499907 16.799793-16.799793 16.799792H354.101949c-9.199886 0-16.799793-7.499907-16.799793-16.799792V32.512239c0-17.299786-13.599832-32.099604-30.999617-32.499599-18.099777-0.499994-32.699596 13.899828-32.699596 31.899606v44.899446c0 9.199886-7.499907 16.799793-16.799793 16.799792H154.204417C73.105418 93.511486 7.506227 159.110676 7.506227 240.209675v637.092136c0 80.999 65.59919 146.698189 146.69819 146.698189h715.591166c80.999 0 146.698189-65.59919 146.69819-146.698189V240.209675c0.099999-81.098999-65.499191-146.698189-146.598191-146.698189zM71.205441 240.209675c0-45.899433 37.199541-82.998975 82.998976-82.998976h102.598733c9.199886 0 16.799793 7.499907 16.799793 16.799793v44.299453c0 17.299786 13.599832 32.099604 30.999617 32.499599 18.099777 0.499994 32.699596-13.899828 32.699596-31.899606V174.010492c0-9.199886 7.499907-16.799793 16.799793-16.799793h319.19606c9.199886 0 16.799793 7.499907 16.799793 16.799793v44.299453c0 17.299786 13.599832 32.099604 30.999617 32.499599 18.099777 0.499994 32.699596-13.899828 32.699596-31.899606V174.010492c0-9.199886 7.499907-16.799793 16.799793-16.799793h99.298774c45.899433 0 82.998975 37.199541 82.998976 82.998976v48.199405c0 12.099851-9.799879 21.89973-21.89973 21.89973H93.105171c-12.099851 0-21.89973-9.799879-21.89973-21.89973v-48.199405z m881.689117 637.192135c0 45.899433-37.199541 82.998975-82.998976 82.998975H154.204417c-45.799435 0-82.998975-37.199541-82.998976-82.998975V395.907753c0-12.099851 9.799879-21.89973 21.89973-21.89973h837.989656c12.099851 0 21.89973 9.799879 21.899729 21.89973l-0.099998 481.494057z" p-id="5755" fill="#8a8a8a"></path>
</svg>